<svg height="480pt" viewBox="0 0 480 480" width="480pt" xmlns="http://www.w3.org/2000/svg"><path d="m416 112h48v200h-48zm0 0" fill="#3b8b77"/><path d="m416 112h24v200h-24zm0 0" fill="#4fb99f"/><path d="m96 0h288v288h-288zm0 0" fill="#bcc3cc"/><path d="m224 368c0 61.855469-50.144531 112-112 112s-112-50.144531-112-112 50.144531-112 112-112 112 50.144531 112 112zm0 0" fill="#bf9945"/><path d="m192 368c0 44.183594-35.816406 80-80 80s-80-35.816406-80-80 35.816406-80 80-80 80 35.816406 80 80zm0 0" fill="#ffcc5c"/><path d="m112 408h-24v-16h24c4.414062 0 8-3.59375 8-8s-3.585938-8-8-8c-13.230469 0-24-10.769531-24-24s10.769531-24 24-24h24v16h-24c-4.414062 0-8 3.59375-8 8s3.585938 8 8 8c13.230469 0 24 10.769531 24 24s-10.769531 24-24 24zm0 0" fill="#8f7334"/><path d="m480 368c0 61.855469-50.144531 112-112 112s-112-50.144531-112-112 50.144531-112 112-112 112 50.144531 112 112zm0 0" fill="#bf9945"/><path d="m448 368c0 44.183594-35.816406 80-80 80s-80-35.816406-80-80 35.816406-80 80-80 80 35.816406 80 80zm0 0" fill="#ffcc5c"/><path d="m368 408h-24v-16h24c4.414062 0 8-3.59375 8-8s-3.585938-8-8-8c-13.230469 0-24-10.769531-24-24s10.769531-24 24-24h24v16h-24c-4.414062 0-8 3.59375-8 8s3.585938 8 8 8c13.230469 0 24 10.769531 24 24s-10.769531 24-24 24zm0 0" fill="#8f7334"/><path d="m360 312h16v24h-16zm0 0" fill="#8f7334"/><path d="m360 400h16v24h-16zm0 0" fill="#8f7334"/><path d="m464 112-24-64-24 64" fill="#bf9945"/><path d="m416 112h24l-12-32zm0 0" fill="#ffcc5c"/><g fill="#8d9299"><path d="m320 128h32v32h-32zm0 0"/><path d="m256 128h32v32h-32zm0 0"/><path d="m192 128h32v32h-32zm0 0"/><path d="m128 128h32v32h-32zm0 0"/><path d="m128 192h32v32h-32zm0 0"/><path d="m192 192h32v32h-32zm0 0"/><path d="m256 192h32v32h-32zm0 0"/><path d="m320 192h32v32h-32zm0 0"/></g><path d="m128 32h224v64h-224zm0 0" fill="#55a4bc"/><path d="m352 368c0 61.855469-50.144531 112-112 112s-112-50.144531-112-112 50.144531-112 112-112 112 50.144531 112 112zm0 0" fill="#bf9945"/><path d="m320 368c0 44.183594-35.816406 80-80 80s-80-35.816406-80-80 35.816406-80 80-80 80 35.816406 80 80zm0 0" fill="#ffcc5c"/><path d="m240 408h-24v-16h24c4.414062 0 8-3.59375 8-8s-3.585938-8-8-8c-13.230469 0-24-10.769531-24-24s10.769531-24 24-24h24v16h-24c-4.414062 0-8 3.59375-8 8s3.585938 8 8 8c13.230469 0 24 10.769531 24 24s-10.769531 24-24 24zm0 0" fill="#8f7334"/><path d="m232 312h16v24h-16zm0 0" fill="#8f7334"/><path d="m232 400h16v24h-16zm0 0" fill="#8f7334"/><path d="m104 312h16v24h-16zm0 0" fill="#8f7334"/><path d="m104 400h16v24h-16zm0 0" fill="#8f7334"/></svg>