<?xml version="1.0" encoding="UTF-8" standalone="no"?>
<!DOCTYPE svg PUBLIC "-//W3C//DTD SVG 1.1//EN" "http://www.w3.org/Graphics/SVG/1.1/DTD/svg11.dtd">
<svg xmlns="http://www.w3.org/2000/svg" version="1.1" viewBox="0 0 24 24" width="24.0pt" height="24.0pt">
<path d="M 0.00 0.00 L 10.42 0.00 C 6.50 1.59 3.15 2.96 1.57 7.25 C 1.03 8.22 0.51 9.20 0.00 10.18 L 0.00 0.00 Z" fill="#abb6c3" />
<path d="M 10.42 0.00 L 13.85 0.00 C 16.77 1.41 19.54 2.34 21.36 5.25 C 17.91 6.00 15.57 2.97 12.00 2.94 C 7.99 2.70 5.07 6.68 1.57 7.25 C 3.15 2.96 6.50 1.59 10.42 0.00 Z" fill="#2e3234" />
<path d="M 13.85 0.00 L 24.00 0.00 L 24.00 10.44 C 23.23 8.70 22.49 6.79 21.36 5.25 C 19.54 2.34 16.77 1.41 13.85 0.00 Z" fill="#acb6c3" />
<path d="M 12.00 2.94 C 15.57 2.97 17.91 6.00 21.36 5.25 C 22.49 6.79 23.23 8.70 24.00 10.44 L 24.00 13.28 C 23.09 12.13 22.16 11.00 21.17 9.93 C 17.28 3.61 4.21 4.72 1.67 11.86 C 1.12 12.63 0.56 13.40 0.00 14.17 L 0.00 10.18 C 0.51 9.20 1.03 8.22 1.57 7.25 C 5.07 6.68 7.99 2.70 12.00 2.94 Z" fill="#5e5e55" />
<path d="M 21.17 9.93 C 12.33 5.61 9.55 6.42 1.67 11.86 C 4.21 4.72 17.28 3.61 21.17 9.93 Z" fill="#938f7b" />
<path d="M 21.17 9.93 C 21.50 11.63 21.83 13.34 21.98 15.07 C 20.24 12.71 18.98 10.83 15.81 10.59 C 13.37 8.61 13.68 6.67 11.12 10.07 C 6.61 10.96 2.63 12.75 2.64 18.08 C 2.03 16.11 1.88 13.91 1.67 11.86 C 9.55 6.42 12.33 5.61 21.17 9.93 Z" fill="#c1bda4" />
<path d="M 15.81 10.59 C 16.24 13.07 20.81 22.76 14.91 16.96 C 13.76 15.24 12.03 15.08 11.33 17.24 C 10.44 18.47 9.71 18.77 8.28 19.16 C 9.08 16.08 10.34 13.15 11.12 10.07 C 13.68 6.67 13.37 8.61 15.81 10.59 Z" fill="#25211c" />
<path d="M 11.12 10.07 C 10.34 13.15 9.08 16.08 8.28 19.16 C 9.71 18.77 10.44 18.47 11.33 17.24 C 12.53 17.31 13.72 17.21 14.91 16.96 C 20.81 22.76 16.24 13.07 15.81 10.59 C 18.98 10.83 20.24 12.71 21.98 15.07 C 22.36 20.80 16.94 22.37 12.61 24.00 L 11.11 24.00 C 7.48 22.81 4.96 21.13 2.64 18.08 C 2.63 12.75 6.61 10.96 11.12 10.07 Z" fill="#f1f2dd" />
<path d="M 21.17 9.93 C 22.16 11.00 23.09 12.13 24.00 13.28 L 24.00 24.00 L 12.61 24.00 C 16.94 22.37 22.36 20.80 21.98 15.07 C 21.83 13.34 21.50 11.63 21.17 9.93 Z" fill="#87939b" />
<path d="M 1.67 11.86 C 1.88 13.91 2.03 16.11 2.64 18.08 C 4.96 21.13 7.48 22.81 11.11 24.00 L 0.00 24.00 L 0.00 14.17 C 0.56 13.40 1.12 12.63 1.67 11.86 Z" fill="#86949a" />
<path d="M 13.13 12.28 C 8.79 16.44 18.72 15.54 13.13 12.28 Z" fill="#b6b1ab" />
<path d="M 14.91 16.96 C 13.72 17.21 12.53 17.31 11.33 17.24 C 12.03 15.08 13.76 15.24 14.91 16.96 Z" fill="#7e7e77" />
</svg>