<svg height="512pt" viewBox="-91 0 512 512" width="512pt" xmlns="http://www.w3.org/2000/svg"><path d="m165 211c24.8125 0 45-20.1875 45-45 0-8.285156-6.714844-15-15-15s-15 6.714844-15 15c0 8.269531-6.730469 15-15 15s-15-6.730469-15-15c0-8.285156-6.714844-15-15-15s-15 6.714844-15 15c0 24.8125 20.1875 45 45 45zm0 0"/><path d="m0 332c0 19.710938 6.382812 38.671875 18.605469 55.707031-1.246094 1.019531-2.457031 2.082031-3.601563 3.222657-21.925781 21.929687-20.832031 64.023437 10.605469 95.460937 30.878906 30.878906 69.90625 31.511719 91.566406 14.09375 14.738281 7.546875 31.140625 11.515625 47.824219 11.515625s33.085938-3.96875 47.824219-11.515625c22.121093 17.789063 61.285156 16.1875 91.566406-14.09375 31.75-31.75 32.308594-73.757813 10.605469-95.460937-1.140625-1.144532-2.355469-2.203126-3.601563-3.222657 12.222657-17.035156 18.605469-35.996093 18.605469-55.707031 0-47.511719-36.375-84.9375-80.253906-104.085938 12.726562-17.371093 20.253906-38.777343 20.253906-61.914062 0-30.167969-12.792969-57.402344-33.234375-76.570312 19.125-5.1875 33.234375-22.6875 33.234375-43.429688 0-11.953125-4.597656-23.347656-12.945312-32.078125-8.582032-8.976563-19.964844-13.921875-32.054688-13.921875-8.285156 0-15 6.714844-15 15s6.714844 15 15 15c7.992188 0 15 7.476562 15 16 0 8.269531-6.730469 15-15 15h-60c-57.898438 0-105 47.101562-105 105 0 23.136719 7.527344 44.542969 20.253906 61.914062-43.90625 19.160157-80.253906 56.597657-80.253906 104.085938zm46.824219 133.175781c-13.730469-13.726562-24.140625-39.5-10.605469-53.03125 13.527344-13.53125 39.265625-3.160156 53.03125 10.605469 13.726562 13.726562 24.140625 39.5 10.605469 53.03125-13.53125 13.535156-39.265625 3.160156-53.03125-10.605469zm86.941406 10.023438c7.433594-25.648438-3.851563-54.210938-23.304687-73.664063-1.886719-1.882812-3.839844-3.667968-5.847657-5.367187 38.40625-17.523438 82.324219-17.539063 120.773438 0-2.007813 1.699219-3.960938 3.480469-5.847657 5.367187-19.417968 19.417969-30.75 47.980469-23.304687 73.664063-9.742187 4.464843-20.402344 6.800781-31.234375 6.800781s-21.492188-2.335938-31.234375-6.800781zm149.410156-10.023438c-13.726562 13.730469-39.5 24.140625-53.03125 10.605469-13.53125-13.527344-3.160156-39.265625 10.605469-53.03125 14.148438-14.148438 39.765625-23.875 53.03125-10.605469 13.535156 13.53125 3.160156 39.265625-10.605469 53.03125zm-118.175781-374.175781c41.355469 0 75 33.644531 75 75s-33.644531 75-75 75-75-33.644531-75-75 33.644531-75 75-75zm-61.523438 160.03125c17.300782 12.554688 38.558594 19.96875 61.523438 19.96875s44.222656-7.414062 61.523438-19.96875c44.246093 15.421875 73.476562 47.285156 73.476562 80.96875 0 15.527344-6.097656 30.683594-17.699219 44.210938-8.804687-.796876-17.222656.28125-25.5 2.726562-4.046875-2.476562-8.183593-4.777344-12.394531-6.90625 16.3125-10.609375 25.59375-24.601562 25.59375-40.03125 0-8.285156-6.714844-15-15-15s-15 6.714844-15 15c0 7.742188-12.894531 18.976562-36.855469 25.308594-12.433593-2.742188-25.207031-4.148438-38.144531-4.148438s-25.714844 1.40625-38.144531 4.148438c-23.960938-6.332032-36.855469-17.566406-36.855469-25.308594 0-8.285156-6.714844-15-15-15s-15 6.714844-15 15c0 15.429688 9.28125 29.421875 25.59375 40.03125-4.210938 2.125-8.34375 4.429688-12.394531 6.90625-8.5-2.511719-16.894531-3.503906-25.496094-2.726562-11.605469-13.523438-17.703125-28.683594-17.703125-44.210938 0-33.683594 29.230469-65.546875 73.476562-80.96875zm0 0"/></svg>