<?xml version="1.0" encoding="UTF-8" standalone="no"?>
<!DOCTYPE svg PUBLIC "-//W3C//DTD SVG 1.1//EN" "http://www.w3.org/Graphics/SVG/1.1/DTD/svg11.dtd">
<svg xmlns="http://www.w3.org/2000/svg" version="1.1" viewBox="0 0 24 24" width="24.0pt" height="24.0pt">
<path d="M 0.00 0.00 L 10.42 0.00 C 6.60 1.48 3.64 2.90 1.72 6.73 C 1.14 7.18 0.57 7.64 0.00 8.09 L 0.00 0.00 Z" fill="#aabbc9" />
<path d="M 10.42 0.00 L 13.85 0.00 C 16.60 1.26 19.20 2.40 21.07 4.89 C 19.32 4.28 17.59 3.65 15.80 3.17 C 11.91 1.56 9.22 2.82 5.80 4.75 C 4.45 5.43 3.08 6.07 1.72 6.73 C 3.64 2.90 6.60 1.48 10.42 0.00 Z" fill="#687a76" />
<path d="M 13.85 0.00 L 24.00 0.00 L 24.00 8.43 C 23.04 7.24 22.09 6.04 21.07 4.89 C 19.20 2.40 16.60 1.26 13.85 0.00 Z" fill="#a9bbc7" />
<path d="M 15.80 3.17 C 20.68 7.22 25.01 9.84 22.33 17.10 C 22.83 12.38 17.96 10.38 15.31 6.64 C 8.29 1.96 3.95 12.88 2.67 18.03 C -1.39 13.14 3.43 9.02 5.80 4.75 C 9.22 2.82 11.91 1.56 15.80 3.17 Z" fill="#bcd6c6" />
<path d="M 15.80 3.17 C 17.59 3.65 19.32 4.28 21.07 4.89 C 22.09 6.04 23.04 7.24 24.00 8.43 L 24.00 24.00 L 12.61 24.00 C 16.66 22.60 20.33 21.20 22.33 17.10 C 25.01 9.84 20.68 7.22 15.80 3.17 Z" fill="#809ca0" />
<path d="M 5.80 4.75 C 3.43 9.02 -1.39 13.14 2.67 18.03 C 4.91 21.12 7.50 22.82 11.11 24.00 L 0.00 24.00 L 0.00 8.09 C 0.57 7.64 1.14 7.18 1.72 6.73 C 3.08 6.07 4.45 5.43 5.80 4.75 Z" fill="#819da0" />
<path d="M 15.31 6.64 C 17.96 10.38 22.83 12.38 22.33 17.10 C 20.33 21.20 16.66 22.60 12.61 24.00 L 11.11 24.00 C 7.50 22.82 4.91 21.12 2.67 18.03 C 3.95 12.88 8.29 1.96 15.31 6.64 Z" fill="#e4f4ed" />
<path d="M 15.88 9.80 C 14.71 11.20 12.39 9.36 10.88 9.24 C 11.87 11.44 15.25 12.07 15.95 14.15 C 17.66 19.08 8.20 19.59 7.93 15.36 C 9.97 15.51 11.99 15.82 14.04 15.86 C 13.40 13.03 7.38 13.40 8.00 10.08 C 9.54 6.06 14.05 5.82 15.88 9.80 Z" fill="#2d2e2d" />
</svg>