<?xml version="1.0" encoding="UTF-8" standalone="no"?>
<!DOCTYPE svg PUBLIC "-//W3C//DTD SVG 1.1//EN" "http://www.w3.org/Graphics/SVG/1.1/DTD/svg11.dtd">
<svg xmlns="http://www.w3.org/2000/svg" version="1.1" viewBox="0 0 24 24" width="24.0pt" height="24.0pt">
<path d="M 0.00 0.00 L 10.42 0.00 C 6.60 1.48 3.62 2.91 1.70 6.74 C 1.13 7.54 0.56 8.35 0.00 9.16 L 0.00 0.00 Z" fill="#aabac8" />
<path d="M 10.42 0.00 L 13.85 0.00 C 16.61 1.31 19.23 2.29 21.07 4.89 C 19.32 4.27 17.60 3.63 15.79 3.21 C 11.68 2.00 9.42 2.60 5.82 4.75 C 4.45 5.42 3.07 6.08 1.70 6.74 C 3.62 2.91 6.60 1.48 10.42 0.00 Z" fill="#697680" />
<path d="M 13.85 0.00 L 24.00 0.00 L 24.00 9.38 C 23.09 7.86 22.18 6.27 21.07 4.89 C 19.23 2.29 16.61 1.31 13.85 0.00 Z" fill="#aabacb" />
<path d="M 15.79 3.21 C 20.25 7.03 24.79 9.27 22.44 16.16 C 21.71 9.63 14.60 3.34 7.89 6.73 C 6.07 10.37 3.24 13.98 2.65 18.05 C -0.97 12.19 3.41 9.75 5.82 4.75 C 9.42 2.60 11.68 2.00 15.79 3.21 Z" fill="#becfd7" />
<path d="M 15.79 3.21 C 17.60 3.63 19.32 4.27 21.07 4.89 C 22.18 6.27 23.09 7.86 24.00 9.38 L 24.00 24.00 L 12.61 24.00 C 16.90 22.23 20.61 20.82 22.44 16.16 C 24.79 9.27 20.25 7.03 15.79 3.21 Z" fill="#829aac" />
<path d="M 5.82 4.75 C 3.41 9.75 -0.97 12.19 2.65 18.05 C 4.82 21.06 7.84 22.48 11.10 24.00 L 0.00 24.00 L 0.00 9.16 C 0.56 8.35 1.13 7.54 1.70 6.74 C 3.07 6.08 4.45 5.42 5.82 4.75 Z" fill="#829aad" />
<path d="M 22.44 16.16 C 20.61 20.82 16.90 22.23 12.61 24.00 L 11.10 24.00 C 7.84 22.48 4.82 21.06 2.65 18.05 C 3.24 13.98 6.07 10.37 7.89 6.73 C 8.38 9.10 6.97 17.17 9.06 17.91 C 16.99 20.32 20.11 11.48 14.19 7.63 C 12.14 7.05 10.01 6.92 7.89 6.73 C 14.60 3.34 21.71 9.63 22.44 16.16 Z" fill="#e7f5f8" />
<path d="M 7.89 6.73 C 10.01 6.92 12.14 7.05 14.19 7.63 C 6.06 6.99 9.76 12.52 9.06 17.91 C 6.97 17.17 8.38 9.10 7.89 6.73 Z" fill="#5f5e60" />
<path d="M 14.19 7.63 C 20.11 11.48 16.99 20.32 9.06 17.91 C 9.76 12.52 6.06 6.99 14.19 7.63 Z" fill="#131213" />
<path d="M 14.22 9.42 C 9.63 9.93 11.42 12.55 10.98 15.93 C 9.23 13.91 8.51 6.91 14.22 9.42 Z" fill="#b0b2b1" />
<path d="M 14.22 9.42 C 15.36 13.06 16.61 17.19 10.98 15.93 C 11.42 12.55 9.63 9.93 14.22 9.42 Z" fill="#f5f7f7" />
</svg>