<?xml version="1.0" encoding="UTF-8" standalone="no"?>
<!DOCTYPE svg PUBLIC "-//W3C//DTD SVG 1.1//EN" "http://www.w3.org/Graphics/SVG/1.1/DTD/svg11.dtd">
<svg xmlns="http://www.w3.org/2000/svg" version="1.1" viewBox="0 0 24 24" width="24.0pt" height="24.0pt">
<path d="M 0.00 0.00 L 8.42 0.00 C 4.97 1.78 2.17 3.77 0.00 7.05 L 0.00 0.00 Z" fill="#aac2c8" />
<path d="M 8.42 0.00 L 15.84 0.00 C 19.14 1.96 22.09 3.87 24.00 7.33 L 24.00 24.00 L 14.64 24.00 L 14.94 23.39 L 15.87 23.18 C 22.22 22.98 25.07 12.91 21.64 8.38 C 19.40 6.40 16.70 3.82 13.64 3.40 L 13.19 3.31 L 12.19 3.11 C 10.93 2.65 9.87 2.72 9.02 3.31 L 7.61 4.19 L 7.13 4.56 C 0.03 9.47 -1.60 20.98 8.39 22.78 L 9.01 23.33 L 9.09 24.00 L 0.00 24.00 L 0.00 7.05 C 2.17 3.77 4.97 1.78 8.42 0.00 Z" fill="#7790a2" />
<path d="M 15.84 0.00 L 24.00 0.00 L 24.00 7.33 C 22.09 3.87 19.14 1.96 15.84 0.00 Z" fill="#aac2c8" />
<path d="M 9.02 3.31 C 10.05 4.59 11.28 4.39 12.19 3.11 L 13.19 3.31 C 13.34 3.34 13.49 3.37 13.64 3.40 C 16.70 3.82 19.40 6.40 21.64 8.38 C 25.07 12.91 22.22 22.98 15.87 23.18 C 18.47 20.91 22.72 17.15 21.74 13.32 C 20.63 10.45 16.04 14.02 15.71 11.34 C 14.10 8.10 14.30 3.72 9.28 5.23 C 7.07 9.40 9.25 12.97 3.81 14.90 C 1.65 18.07 6.14 21.00 8.39 22.78 C -1.60 20.98 0.03 9.47 7.13 4.56 L 7.61 4.19 L 9.02 3.31 Z" fill="#aac2c8" />
<path d="M 9.02 3.31 C 9.87 2.72 10.93 2.65 12.19 3.11 C 11.28 4.39 10.05 4.59 9.02 3.31 Z" fill="#cceae4" />
<path d="M 13.19 3.31 L 13.64 3.40 C 13.49 3.37 13.34 3.34 13.19 3.31 Z" fill="#cceae4" />
<path d="M 7.61 4.19 L 7.13 4.56 L 7.61 4.19 Z" fill="#cceae4" />
<path d="M 9.28 5.23 C 14.30 3.72 14.10 8.10 15.71 11.34 C 16.04 14.02 20.63 10.45 21.74 13.32 C 22.72 17.15 18.47 20.91 15.87 23.18 L 14.94 23.39 C 12.79 22.55 11.18 22.58 9.01 23.33 L 8.39 22.78 C 6.14 21.00 1.65 18.07 3.81 14.90 C 9.25 12.97 7.07 9.40 9.28 5.23 Z" fill="#cceae4" />
<path d="M 15.27 5.27 C 15.75 5.76 15.75 5.76 15.27 5.27 Z" fill="#7790a2" />
<path d="M 12.10 6.74 L 10.21 7.06 C 10.53 5.40 11.16 5.29 12.10 6.74 Z" fill="#aac2c8" />
<path d="M 6.27 7.27 C 6.75 7.76 6.75 7.76 6.27 7.27 Z" fill="#7790a2" />
<path d="M 10.21 7.06 L 12.10 6.74 C 13.79 10.21 12.94 15.09 12.79 18.87 C 7.88 21.00 10.62 9.61 10.21 7.06 Z" fill="#7790a2" />
<path d="M 9.01 23.33 C 11.18 22.58 12.79 22.55 14.94 23.39 L 14.64 24.00 L 9.09 24.00 L 9.01 23.33 Z" fill="#aac2c8" />
</svg>