<?xml version="1.0" encoding="UTF-8" standalone="no"?>
<!DOCTYPE svg PUBLIC "-//W3C//DTD SVG 1.1//EN" "http://www.w3.org/Graphics/SVG/1.1/DTD/svg11.dtd">
<svg xmlns="http://www.w3.org/2000/svg" version="1.1" viewBox="0 0 24 24" width="24.0pt" height="24.0pt">
<path d="M 0.00 0.00 L 10.42 0.00 C 6.62 1.49 3.58 2.88 1.71 6.75 C 1.13 7.55 0.57 8.35 0.00 9.15 L 0.00 0.00 Z" fill="#aeb7ca" />
<path d="M 10.42 0.00 L 13.84 0.00 C 16.64 1.38 19.33 2.23 21.17 4.92 L 20.02 6.13 C 15.59 2.75 10.79 1.49 5.82 4.74 C 4.45 5.43 3.08 6.09 1.71 6.75 C 3.58 2.88 6.62 1.49 10.42 0.00 Z" fill="#727183" />
<path d="M 13.84 0.00 L 24.00 0.00 L 24.00 9.40 C 23.11 7.88 22.22 6.33 21.17 4.92 C 19.33 2.23 16.64 1.38 13.84 0.00 Z" fill="#adb8cb" />
<path d="M 20.02 6.13 C 22.07 9.56 24.23 12.02 22.32 16.23 C 19.45 9.15 16.91 3.36 7.86 6.76 C 5.88 10.36 3.79 14.07 2.65 18.03 C -1.00 12.17 3.44 9.76 5.82 4.74 C 10.79 1.49 15.59 2.75 20.02 6.13 Z" fill="#c7c1d9" />
<path d="M 5.82 4.74 C 3.44 9.76 -1.00 12.17 2.65 18.03 C 4.81 21.07 7.84 22.48 11.11 24.00 L 0.00 24.00 L 0.00 9.15 C 0.57 8.35 1.13 7.55 1.71 6.75 C 3.08 6.09 4.45 5.43 5.82 4.74 Z" fill="#8990ad" />
<path d="M 21.17 4.92 C 22.22 6.33 23.11 7.88 24.00 9.40 L 24.00 24.00 L 12.63 24.00 C 16.70 22.31 20.44 20.50 22.32 16.23 C 24.23 12.02 22.07 9.56 20.02 6.13 L 21.17 4.92 Z" fill="#8a92af" />
<path d="M 22.32 16.23 C 20.44 20.50 16.70 22.31 12.63 24.00 L 11.11 24.00 C 7.84 22.48 4.81 21.07 2.65 18.03 C 3.79 14.07 5.88 10.36 7.86 6.76 C 8.37 8.94 7.01 17.66 9.09 17.75 L 9.86 17.62 C 11.17 17.54 11.48 14.69 11.98 13.69 C 13.60 15.25 14.88 16.84 16.73 18.09 C 14.23 14.04 18.69 10.08 15.17 7.68 C 12.91 6.88 10.25 6.90 7.86 6.76 C 16.91 3.36 19.45 9.15 22.32 16.23 Z" fill="#efeaf8" />
<path d="M 7.86 6.76 C 10.25 6.90 12.91 6.88 15.17 7.68 C 13.18 7.82 11.18 7.94 9.21 8.26 C 8.82 11.38 9.00 14.62 9.09 17.75 C 7.01 17.66 8.37 8.94 7.86 6.76 Z" fill="#626162" />
<path d="M 9.21 8.26 C 11.18 7.94 13.18 7.82 15.17 7.68 C 18.69 10.08 14.23 14.04 16.73 18.09 C 14.88 16.84 13.60 15.25 11.98 13.69 C 9.57 11.46 9.85 16.39 9.86 17.62 L 9.09 17.75 C 9.00 14.62 8.82 11.38 9.21 8.26 Z" fill="#0f0e0f" />
<path d="M 10.12 9.13 C 11.74 8.98 13.36 9.00 14.97 9.14 C 15.36 12.73 8.55 13.56 10.12 9.13 Z" fill="#c2c2c3" />
<path d="M 11.98 13.69 C 11.48 14.69 11.17 17.54 9.86 17.62 C 9.85 16.39 9.57 11.46 11.98 13.69 Z" fill="#a4a4a7" />
</svg>