<?xml version="1.0" encoding="iso-8859-1"?>
<!-- Generator: Adobe Illustrator 18.1.1, SVG Export Plug-In . SVG Version: 6.00 Build 0)  -->
<svg version="1.1" id="Capa_1" xmlns="http://www.w3.org/2000/svg" xmlns:xlink="http://www.w3.org/1999/xlink" x="0px" y="0px"
	 viewBox="0 0 300.81 300.81" style="enable-background:new 0 0 300.81 300.81;" xml:space="preserve">
<g>
	<g>
		<path style="fill:#010002;" d="M217.207,239.954l-44.746-4.726c0.203-8.479,1.42-17.214,4.744-23.832
			c24.363-11.486,43.624-36.273,52.365-65.695c1.187,1.581,2.727,2.679,4.553,3.025c4.982,0.949,10.263-4.505,11.182-12.256
			c0.089-0.728,0.119-1.444,0.113-2.148c-0.012-1.187,4.541-5.871,7.286-13.539c1.569-4.392,2.411-9.547,2.232-15.013
			c-0.603-17.841-11.85-30.562-22.042-28.617c-1.056,0.203-2.041,0.597-3.001,1.032c-1.205-4.022-2.631-7.918-4.248-11.695
			c-4.911,0.949-9.678,0.883-14.01,0.328c-7.661-0.937-14.171-3.735-19.237-6.993c-5.114-3.216-8.759-6.993-11.331-10.281
			c-2.602-3.282-4.111-6.176-5.09-8.127c-0.943-1.975-1.354-3.055-1.354-3.055s0.776,0.853,2.226,2.458
			c1.444,1.581,3.735,3.747,6.79,6.14c3.079,2.363,7.107,4.773,11.94,6.635c4.857,1.778,10.585,2.954,16.66,2.769
			c2.566-0.095,5.239-0.519,7.829-1.175c3.461-0.877,6.772-2.214,9.428-4.213c2.291-1.742,3.807-3.902,4.213-5.895
			c0.477-1.951,0.233-4.093-1.062-6.695c-2.584-5.251-8.789-10.537-15.508-15.054c-3.431-2.255-7.089-4.386-10.866-6.414
			c-1.909-1.026-3.807-1.957-5.698-2.888c-1.945-0.871-4.278-2.088-6.015-2.798c-7.876-3.664-16.003-6.48-24.082-8.419
			c-8.061-1.975-16.117-3.097-23.826-2.751c-7.679,0.388-15.06,1.677-21.696,4.296c-6.599,2.619-12.656,5.997-17.728,9.983
			c-5.806,4.511-10.46,9.332-14.303,13.879c2.602-1.128,5.37-1.963,8.318-2.417c-0.453,0.328-0.871,0.71-1.325,1.05
			c-2.446,0.388-4.797,0.823-6.993,1.772C90,32.08,87.505,36.013,85.584,38.829c-1.689,2.494-3.025,4.732-4.04,6.546
			c-0.716,0.955-1.462,1.874-2.148,2.858c0.024-0.131,0.048-0.263,0.078-0.406c0.782-1.48,2.769-5.072,6.11-10.018
			c1.921-2.816,4.421-6.134,7.339-9.595c-2.112,0.919-4.063,2.047-5.877,3.341c-1.486,1.062-2.846,2.226-4.093,3.509
			c-0.101,0.257-0.203,0.513-0.304,0.776c-4.535,4.815-7.393,10.746-7.393,17.531c0,0.161,0.036,0.257,0.054,0.388
			c-0.37-0.048-0.728-0.137-1.11-0.137c-6.116,0-11.08,6.134-11.08,13.694c0,3.347,1.008,6.373,2.625,8.753
			c-0.191,0.585-0.382,1.17-0.561,1.76c-0.662-0.239-1.301-0.555-2.005-0.692c-10.191-1.945-21.439,10.782-22.042,28.617
			c-0.185,5.466,0.662,10.615,2.232,15.013c2.739,7.667,7.292,12.351,7.286,13.539c-0.006,0.704,0.03,1.42,0.113,2.148
			c0.919,7.745,6.2,13.205,11.182,12.256c1.438-0.274,2.679-1.044,3.729-2.112c10.066,32.961,33.337,59.985,62.127,68.685
			c1.665,4.935,3.234,12.119,2.19,19.816l-46.392,5.03c-25.825,0-46.762,30.849-46.762,60.683H263.97
			C263.97,270.988,243.032,239.954,217.207,239.954z M87.464,38.214c-0.436,0.477-0.865,0.961-1.295,1.45
			C86.598,39.163,87.034,38.686,87.464,38.214z"/>
	</g>
</g>
<g>
</g>
<g>
</g>
<g>
</g>
<g>
</g>
<g>
</g>
<g>
</g>
<g>
</g>
<g>
</g>
<g>
</g>
<g>
</g>
<g>
</g>
<g>
</g>
<g>
</g>
<g>
</g>
<g>
</g>
</svg>
