<svg height="512pt" viewBox="-61 0 512 512" width="512pt" xmlns="http://www.w3.org/2000/svg"><path d="m255.003906 120h43.484375c-6.640625-45.808594-42.675781-81.84375-88.484375-88.484375v43.484375c0 24.8125 20.1875 45 45 45zm0 0"/><path d="m91.519531 120h43.484375c24.816406 0 45-20.1875 45-45v-43.484375c-45.804687 6.640625-81.84375 42.675781-88.484375 88.484375zm0 0"/><path d="m195.003906 360c24.816406 0 45-20.1875 45-45v-25.105469c36.285156-17.214843 60-54.097656 60-94.894531v-45h-45c-24.507812 0-46.304687-11.820312-60-30.042969-13.695312 18.222657-35.492187 30.042969-60 30.042969h-45v45c0 40.796875 23.714844 77.679688 60 94.894531v25.105469c0 24.8125 20.1875 45 45 45zm-30-180c8.292969 0 15 6.710938 15 15 0 8.277344 6.726563 15 15 15 8.277344 0 15-6.722656 15-15 0-8.289062 6.710938-15 15-15 8.292969 0 15 6.710938 15 15 0 24.8125-20.183594 45-45 45-24.8125 0-45-20.1875-45-45 0-8.289062 6.710938-15 15-15zm0 0"/><path d="m150.109375 8.261719c-8.949219-5.230469-19.25-8.261719-30.105469-8.261719-33.089844 0-60 26.910156-60 60 0 10.851562 3.03125 21.15625 8.261719 30.101562 13.582031-38.203124 43.636719-68.257812 81.84375-81.839843zm0 0"/><path d="m330.003906 60c0-33.089844-26.910156-60-60-60-10.851562 0-21.15625 3.03125-30.101562 8.261719 38.203125 13.582031 68.257812 43.636719 81.84375 81.839843 5.226562-8.945312 8.257812-19.25 8.257812-30.101562zm0 0"/><path d="m383.324219 177.480469c6.898437-4.601563 8.761719-13.902344 4.160156-20.800781l-37.472656-56.210938c-5.214844 10.238281-12.148438 19.511719-20.757813 27.101562.136719 2.511719.75 4.882813.75 7.429688v58.679688c18.5625.003906 37.121094-5.402344 53.320313-16.199219zm0 0"/><path d="m2.523438 156.679688c-4.597657 6.898437-2.738282 16.203124 4.160156 20.800781 16.203125 10.796875 34.761718 16.203125 53.320312 16.203125v-58.683594c0-2.539062.609375-4.910156.75-7.410156-8.605468-7.59375-15.539062-16.867188-20.757812-27.117188zm0 0"/><path d="m15.003906 512h45v-77c0-8.289062 6.710938-15 15-15 8.292969 0 15 6.710938 15 15v77h210v-77c0-8.289062 6.710938-15 15-15 8.292969 0 15 6.710938 15 15v77h45c8.292969 0 15-6.710938 15-15v-122c0-41.351562-33.644531-75-75-75h-45v15c0 41.351562-33.644531 75-75 75-41.351562 0-75-33.648438-75-75v-15h-45c-41.351562 0-74.99999975 33.648438-74.99999975 75v122c0 8.289062 6.71093775 15 14.99999975 15zm0 0"/></svg>